HIERARCHY
ROOT newVegas:Hips
{
	OFFSET 0.000000 96.479958 0.000000
	CHANNELS 6 Xposition Yposition Zposition Xrotation Yrotation Zrotation
	JOINT newVegas:Pelvis
	{
		OFFSET 0.000000 0.000000 0.000000
		CHANNELS 3 Xrotation Yrotation Zrotation
		JOINT newVegas:LeftUpLeg
		{
			OFFSET 18.735201 -5.666702 -4.541200
			CHANNELS 3 Xrotation Yrotation Zrotation
			JOINT newVegas:LeftLeg
			{
				OFFSET -0.021200 -31.938179 0.493100
				CHANNELS 3 Xrotation Yrotation Zrotation
				JOINT newVegas:LeftFoot
				{
					OFFSET 0.021200 -31.938179 -4.336299
					CHANNELS 3 Xrotation Yrotation Zrotation
					JOINT newVegas:LeftToeBase
					{
						OFFSET 0.943001 -26.722000 15.023500
						CHANNELS 3 Xrotation Yrotation Zrotation
						End Site
						{
							OFFSET 0.000000 30.670183 0.000000
						}
					}
				}
				JOINT newVegas:Left_PantLeg
				{
					OFFSET 0.663870 -9.044666 -1.108900
					CHANNELS 3 Xrotation Yrotation Zrotation
					End Site
					{
						OFFSET 1.415995 20.635357 0.000000
					}
				}
			}
		}
		JOINT newVegas:RightUpLeg
		{
			OFFSET -18.735201 -5.666702 -4.541200
			CHANNELS 3 Xrotation Yrotation Zrotation
			JOINT newVegas:RightLeg
			{
				OFFSET 0.018946 -31.938133 0.493100
				CHANNELS 3 Xrotation Yrotation Zrotation
				JOINT newVegas:RightFoot
				{
					OFFSET -0.018946 -31.938126 -4.336299
					CHANNELS 3 Xrotation Yrotation Zrotation
					JOINT newVegas:RightToeBase
					{
						OFFSET -0.943001 -26.722004 15.023500
						CHANNELS 3 Xrotation Yrotation Zrotation
						End Site
						{
							OFFSET 0.000000 30.670187 0.000000
						}
					}
				}
				JOINT newVegas:Right_PantLeg
				{
					OFFSET -0.661674 -9.044716 -1.108900
					CHANNELS 3 Xrotation Yrotation Zrotation
					End Site
					{
						OFFSET -1.415958 20.635269 0.000000
					}
				}
			}
		}
	}
	JOINT newVegas:Spine
	{
		OFFSET 0.000000 10.199997 -0.299500
		CHANNELS 3 Xrotation Yrotation Zrotation
		JOINT newVegas:Spine1
		{
			OFFSET 0.000000 11.900002 -1.516600
			CHANNELS 3 Xrotation Yrotation Zrotation
			JOINT newVegas:Spine2
			{
				OFFSET 0.000000 13.600006 -2.842500
				CHANNELS 3 Xrotation Yrotation Zrotation
				JOINT newVegas:Neck
				{
					OFFSET 0.000000 9.624100 -2.890100
					CHANNELS 3 Xrotation Yrotation Zrotation
					JOINT newVegas:Head
					{
						OFFSET 0.000000 14.068802 -1.351900
						CHANNELS 3 Xrotation Yrotation Zrotation
						JOINT newVegas:Hair_Back
						{
							OFFSET 0.000000 3.231903 -17.524799
							CHANNELS 3 Xrotation Yrotation Zrotation
							End Site
							{
								OFFSET 0.000000 19.849884 0.000000
							}
						}
						JOINT newVegas:Hair_Front
						{
							OFFSET 0.000000 31.260406 4.573800
							CHANNELS 3 Xrotation Yrotation Zrotation
							JOINT newVegas:Hair_Front1
							{
								OFFSET 0.000000 2.284103 11.993300
								CHANNELS 3 Xrotation Yrotation Zrotation
								JOINT newVegas:Hair_Front2
								{
									OFFSET 0.000000 2.284103 11.993300
									CHANNELS 3 Xrotation Yrotation Zrotation
									End Site
									{
										OFFSET 0.000000 12.208862 0.000000
									}
								}
							}
						}
						JOINT newVegas:Jowel
						{
							OFFSET 0.000000 -7.458206 6.864100
							CHANNELS 3 Xrotation Yrotation Zrotation
							End Site
							{
								OFFSET 0.000000 19.849884 0.000000
							}
						}
					}
				}
				JOINT newVegas:LeftShoulder
				{
					OFFSET 15.263000 10.923401 -0.547700
					CHANNELS 3 Xrotation Yrotation Zrotation
					JOINT newVegas:LeftArm
					{
						OFFSET 25.438599 -2.830597 -13.032500
						CHANNELS 3 Xrotation Yrotation Zrotation
						JOINT newVegas:LeftForeArm
						{
							OFFSET 29.960503 0.000000 0.000000
							CHANNELS 3 Xrotation Yrotation Zrotation
							JOINT newVegas:LeftHand
							{
								OFFSET 27.849251 0.000000 0.000000
								CHANNELS 3 Xrotation Yrotation Zrotation
								JOINT newVegas:LeftHandThumb1
								{
									OFFSET 4.487587 -3.305161 6.305391
									CHANNELS 3 Xrotation Yrotation Zrotation
									JOINT newVegas:LeftHandThumb2
									{
										OFFSET 5.480453 -3.164139 3.164143
										CHANNELS 3 Xrotation Yrotation Zrotation
										JOINT newVegas:LeftHandThumb3
										{
											OFFSET 5.159721 -2.978973 2.978967
											CHANNELS 3 Xrotation Yrotation Zrotation
											End Site
											{
												OFFSET 2.494507 5.926697 1.738678
											}
										}
									}
								}
								JOINT newVegas:LeftHandIndex1
								{
									OFFSET 18.578728 -0.527832 5.208049
									CHANNELS 3 Xrotation Yrotation Zrotation
									JOINT newVegas:LeftHandIndex2
									{
										OFFSET 3.192009 0.000000 0.000000
										CHANNELS 3 Xrotation Yrotation Zrotation
										JOINT newVegas:LeftHandIndex3
										{
											OFFSET 3.835129 0.000000 0.000000
											CHANNELS 3 Xrotation Yrotation Zrotation
											End Site
											{
												OFFSET -0.034599 3.816971 0.371180
											}
										}
									}
								}
								JOINT newVegas:LeftHandMiddle1
								{
									OFFSET 18.476105 0.000000 0.000000
									CHANNELS 3 Xrotation Yrotation Zrotation
									JOINT newVegas:LeftHandMiddle2
									{
										OFFSET 3.324875 0.000000 0.000000
										CHANNELS 3 Xrotation Yrotation Zrotation
										JOINT newVegas:LeftHandMiddle3
										{
											OFFSET 4.596550 0.000000 0.000000
											CHANNELS 3 Xrotation Yrotation Zrotation
											End Site
											{
												OFFSET 0.057701 4.578827 0.399218
											}
										}
									}
								}
								JOINT newVegas:LeftHandRing1
								{
									OFFSET 17.732719 0.121887 -4.201567
									CHANNELS 3 Xrotation Yrotation Zrotation
									JOINT newVegas:LeftHandRing2
									{
										OFFSET 2.733170 0.000000 0.000000
										CHANNELS 3 Xrotation Yrotation Zrotation
										JOINT newVegas:LeftHandRing3
										{
											OFFSET 3.178268 0.000000 0.000000
											CHANNELS 3 Xrotation Yrotation Zrotation
											End Site
											{
												OFFSET 0.119102 3.170624 0.185394
											}
										}
									}
								}
								JOINT newVegas:LeftHandPinky1
								{
									OFFSET 15.989624 -0.606689 -7.535461
									CHANNELS 3 Xrotation Yrotation Zrotation
									JOINT newVegas:LeftHandPinky2
									{
										OFFSET 2.538986 0.000000 0.000000
										CHANNELS 3 Xrotation Yrotation Zrotation
										JOINT newVegas:LeftHandPinky3
										{
											OFFSET 2.593102 0.000000 0.000000
											CHANNELS 3 Xrotation Yrotation Zrotation
											End Site
											{
												OFFSET -0.150902 2.584198 0.152708
											}
										}
									}
								}
							}
							JOINT newVegas:Left_Sleeve
							{
								OFFSET 0.267448 -0.649796 0.577675
								CHANNELS 3 Xrotation Yrotation Zrotation
								End Site
								{
									OFFSET 0.000000 15.991241 0.000000
								}
							}
							JOINT newVegas:Left_CapeC
							{
								OFFSET 15.715958 -8.608795 -6.935905
								CHANNELS 3 Xrotation Yrotation Zrotation
								JOINT newVegas:Left_CapeC1
								{
									OFFSET 0.000000 -8.688499 0.000000
									CHANNELS 3 Xrotation Yrotation Zrotation
									End Site
									{
										OFFSET 0.000000 8.688499 0.000000
									}
								}
							}
						}
						JOINT newVegas:Left_CapeB
						{
							OFFSET 26.118385 -8.608795 -7.079235
							CHANNELS 3 Xrotation Yrotation Zrotation
							JOINT newVegas:Left_CapeB1
							{
								OFFSET 0.000000 -8.688499 0.000000
								CHANNELS 3 Xrotation Yrotation Zrotation
								End Site
								{
									OFFSET 0.000000 8.688499 0.000000
								}
							}
						}
						JOINT newVegas:Left_CapeA
						{
							OFFSET 5.115639 -8.608795 -10.395809
							CHANNELS 3 Xrotation Yrotation Zrotation
							JOINT newVegas:Left_CapeA1
							{
								OFFSET 0.000000 -8.688499 0.000000
								CHANNELS 3 Xrotation Yrotation Zrotation
								End Site
								{
									OFFSET 0.000000 8.688499 0.000000
								}
							}
						}
					}
				}
				JOINT newVegas:RightShoulder
				{
					OFFSET -15.263000 10.923401 -0.547700
					CHANNELS 3 Xrotation Yrotation Zrotation
					JOINT newVegas:RightArm
					{
						OFFSET -25.438599 -2.830597 -13.032500
						CHANNELS 3 Xrotation Yrotation Zrotation
						JOINT newVegas:RightForeArm
						{
							OFFSET -29.960503 0.000000 0.000000
							CHANNELS 3 Xrotation Yrotation Zrotation
							JOINT newVegas:RightHand
							{
								OFFSET -27.849251 0.000000 0.000000
								CHANNELS 3 Xrotation Yrotation Zrotation
								JOINT newVegas:RightHandThumb1
								{
									OFFSET -4.487587 -3.305161 6.305391
									CHANNELS 3 Xrotation Yrotation Zrotation
									JOINT newVegas:RightHandThumb2
									{
										OFFSET -5.480453 -3.164139 3.164143
										CHANNELS 3 Xrotation Yrotation Zrotation
										JOINT newVegas:RightHandThumb3
										{
											OFFSET -5.159721 -2.978973 2.978967
											CHANNELS 3 Xrotation Yrotation Zrotation
											End Site
											{
												OFFSET -2.494507 5.926697 1.738678
											}
										}
									}
								}
								JOINT newVegas:RightHandIndex1
								{
									OFFSET -18.578728 -0.527832 5.208049
									CHANNELS 3 Xrotation Yrotation Zrotation
									JOINT newVegas:RightHandIndex2
									{
										OFFSET -3.192009 0.000000 0.000000
										CHANNELS 3 Xrotation Yrotation Zrotation
										JOINT newVegas:RightHandIndex3
										{
											OFFSET -3.835129 0.000000 0.000000
											CHANNELS 3 Xrotation Yrotation Zrotation
											End Site
											{
												OFFSET 0.034599 3.816971 0.371180
											}
										}
									}
								}
								JOINT newVegas:RightHandMiddle1
								{
									OFFSET -18.476105 0.000000 0.000000
									CHANNELS 3 Xrotation Yrotation Zrotation
									JOINT newVegas:RightHandMiddle2
									{
										OFFSET -3.324875 0.000000 0.000000
										CHANNELS 3 Xrotation Yrotation Zrotation
										JOINT newVegas:RightHandMiddle3
										{
											OFFSET -4.596550 0.000000 0.000000
											CHANNELS 3 Xrotation Yrotation Zrotation
											End Site
											{
												OFFSET -0.057701 4.578827 0.399218
											}
										}
									}
								}
								JOINT newVegas:RightHandRing1
								{
									OFFSET -17.732719 0.121887 -4.201567
									CHANNELS 3 Xrotation Yrotation Zrotation
									JOINT newVegas:RightHandRing2
									{
										OFFSET -2.733170 0.000000 0.000000
										CHANNELS 3 Xrotation Yrotation Zrotation
										JOINT newVegas:RightHandRing3
										{
											OFFSET -3.178268 0.000000 0.000000
											CHANNELS 3 Xrotation Yrotation Zrotation
											End Site
											{
												OFFSET -0.119102 3.170624 0.185394
											}
										}
									}
								}
								JOINT newVegas:RightHandPinky1
								{
									OFFSET -15.989624 -0.606689 -7.535461
									CHANNELS 3 Xrotation Yrotation Zrotation
									JOINT newVegas:RightHandPinky2
									{
										OFFSET -2.538986 0.000000 0.000000
										CHANNELS 3 Xrotation Yrotation Zrotation
										JOINT newVegas:RightHandPinky3
										{
											OFFSET -2.593102 0.000000 0.000000
											CHANNELS 3 Xrotation Yrotation Zrotation
											End Site
											{
												OFFSET 0.150902 2.584198 0.152708
											}
										}
									}
								}
							}
							JOINT newVegas:Right_CapeC
							{
								OFFSET -15.715958 -8.608795 -6.935905
								CHANNELS 3 Xrotation Yrotation Zrotation
								JOINT newVegas:Right_CapeC1
								{
									OFFSET 0.000000 -8.688499 0.000000
									CHANNELS 3 Xrotation Yrotation Zrotation
									End Site
									{
										OFFSET 0.000000 8.688499 0.000000
									}
								}
							}
							JOINT newVegas:Right_Sleeve
							{
								OFFSET -0.267448 -0.649994 0.577675
								CHANNELS 3 Xrotation Yrotation Zrotation
								End Site
								{
									OFFSET 0.000000 15.991302 0.000000
								}
							}
						}
						JOINT newVegas:Right_CapeA
						{
							OFFSET -5.115540 -8.608795 -10.395824
							CHANNELS 3 Xrotation Yrotation Zrotation
							JOINT newVegas:Right_CapeA1
							{
								OFFSET 0.000000 -8.688499 0.000000
								CHANNELS 3 Xrotation Yrotation Zrotation
								End Site
								{
									OFFSET 0.000000 8.688499 0.000000
								}
							}
						}
						JOINT newVegas:Right_CapeB
						{
							OFFSET -26.118187 -8.608795 -7.079266
							CHANNELS 3 Xrotation Yrotation Zrotation
							JOINT newVegas:Right_CapeB1
							{
								OFFSET 0.000000 -8.688499 0.000000
								CHANNELS 3 Xrotation Yrotation Zrotation
								End Site
								{
									OFFSET 0.000000 8.688499 0.000000
								}
							}
						}
					}
				}
				JOINT newVegas:Left_Collar
				{
					OFFSET 18.625099 8.655502 8.828100
					CHANNELS 3 Xrotation Yrotation Zrotation
					JOINT newVegas:Left_Collar1
					{
						OFFSET 14.783401 10.540405 -1.259500
						CHANNELS 3 Xrotation Yrotation Zrotation
						End Site
						{
							OFFSET 0.000000 18.199875 0.000000
						}
					}
				}
				JOINT newVegas:Collar_Back
				{
					OFFSET 0.000000 15.630707 -20.132601
					CHANNELS 3 Xrotation Yrotation Zrotation
					End Site
					{
						OFFSET 0.000000 22.523010 0.000000
					}
				}
				JOINT newVegas:Left_Peck
				{
					OFFSET 17.239599 -5.132599 25.482599
					CHANNELS 3 Xrotation Yrotation Zrotation
					End Site
					{
						OFFSET 0.000000 22.523010 0.000000
					}
				}
				JOINT newVegas:Right_Peck
				{
					OFFSET -17.239599 -5.132202 25.482599
					CHANNELS 3 Xrotation Yrotation Zrotation
					End Site
					{
						OFFSET 0.000000 22.523010 0.000000
					}
				}
				JOINT newVegas:Right_Collar
				{
					OFFSET -18.625099 8.655792 8.828100
					CHANNELS 3 Xrotation Yrotation Zrotation
					JOINT newVegas:Right_Collar1
					{
						OFFSET -14.783401 10.539993 -1.259500
						CHANNELS 3 Xrotation Yrotation Zrotation
						End Site
						{
							OFFSET 0.000000 18.199631 0.000000
						}
					}
				}
			}
		}
		JOINT newVegas:Belly
		{
			OFFSET 0.000000 -6.540398 9.014299
			CHANNELS 3 Xrotation Yrotation Zrotation
			End Site
			{
				OFFSET 0.000000 11.566666 0.000000
			}
		}
	}
	JOINT newVegas:ElvisFacialAnim_Joint
	{
		OFFSET 1.000000 -95.330101 -8.825800
		CHANNELS 3 Xrotation Yrotation Zrotation
		End Site
		{
			OFFSET 0.000000 35.315800 0.000000
		}
	}
}
MOTION
Frames: 4
Frame Time: 0.033333
-1.772507 92.862099 2.071545 -20.081593 -38.568227 -11.000376 0.000000 -0.000005 -0.000001 -18.604897 42.629710 31.268131 28.271734 -1.117021 -0.957046 -2.261697 1.876121 -6.094675 0.000000 0.000000 0.000000 -0.000000 0.000000 0.000001 8.943975 5.152046 -7.408761 33.040504 0.302718 1.194053 -24.593474 -17.957119 5.237847 0.000000 -0.000002 -0.000000 0.000004 0.000000 -0.000001 6.654602 -0.039876 -0.403950 13.309103 -0.107133 -0.573312 13.309098 -0.107126 -0.573311 0.017244 1.518152 0.105097 0.017248 1.518162 0.105091 -0.000000 0.000000 -0.000000 0.017242 1.518147 0.105098 0.017310 1.518204 0.105086 -0.000000 -0.000002 0.000001 -0.000000 0.000000 -0.000000 -37.571085 -4.822551 1.546116 -44.624587 -11.629082 -63.660655 1.490939 -47.173777 -0.312227 -109.650286 4.731605 24.225115 3.592089 4.185675 -5.133822 1.252888 4.302599 1.889365 0.000001 -0.000001 -0.000004 7.554898 5.560411 -33.410372 -14.917820 -6.767415 -80.641892 -0.000003 0.000001 0.000000 -0.349219 -1.566805 -62.979248 -6.177640 -6.585493 -60.286173 0.000002 -0.000001 -0.000002 -5.286474 4.624210 -73.484714 0.757931 -3.521237 -58.282858 -0.000001 -0.000004 0.000002 -16.248779 1.424906 -86.150576 2.608803 -7.578027 -55.784706 -0.000001 -0.000003 -0.000000 -0.000001 -0.000001 -0.000004 -0.000001 -0.000001 -0.000004 -0.000001 -0.000001 -0.000004 -0.000002 0.000001 0.000001 -0.000002 0.000001 0.000001 -0.000002 0.000001 0.000001 -0.000002 0.000001 0.000001 -31.670423 22.544049 -0.844506 -13.506107 48.022988 57.937448 -1.360369 108.236232 -6.829285 -49.521662 -24.455764 -36.838936 15.407481 -4.518716 17.010996 11.550386 4.015391 -20.411406 -0.000004 -0.000004 0.000002 1.857058 -0.976109 4.781776 -1.775897 -0.095302 22.317045 -0.000000 0.000000 0.000000 3.631161 5.779714 48.858819 -9.397622 -0.919653 110.759782 0.000000 0.000000 0.000000 -8.676849 -5.659706 54.892301 -4.714154 8.864052 96.803759 -0.000001 0.000001 0.000001 -12.562927 0.077580 69.885300 -3.484588 14.093143 79.770524 0.000000 0.000001 0.000001 0.000003 0.000001 0.000001 0.000002 -0.000002 0.000001 0.000003 0.000001 0.000001 0.000000 -0.000004 -0.000000 0.000000 -0.000003 -0.000000 0.000000 -0.000004 -0.000000 0.000000 -0.000003 0.000001 -0.000000 0.000000 0.000000 -0.000000 0.000000 0.000000 -0.000000 0.000000 0.000000 -0.000000 0.000000 0.000000 -0.000000 0.000000 0.000000 -0.000000 0.000000 0.000000 -0.000000 0.000000 0.000000 -0.000001 -0.000000 -0.000000 0.000000 -0.000005 -0.000001 
-1.960651 92.828842 2.258148 -19.822978 -38.641160 -10.878071 -0.000000 0.000001 0.000000 -18.685734 42.548209 31.395439 28.415540 -1.136685 -0.973148 -2.466105 1.913134 -6.303753 0.000000 -0.000000 -0.000000 0.000000 0.000001 0.000001 9.034196 5.230825 -7.330126 32.868182 0.273142 1.186655 -24.732964 -18.018461 5.195264 0.000000 0.000000 0.000000 -0.000001 -0.000001 -0.000000 6.603181 -0.089906 -0.425594 13.206187 -0.210228 -0.609543 13.206189 -0.210217 -0.609546 0.039267 1.577072 0.129061 0.039270 1.577084 0.129060 0.000000 0.000003 -0.000001 0.039344 1.577063 0.129055 0.039203 1.577091 0.129055 -0.000000 0.000000 -0.000000 0.000000 0.000003 -0.000001 -37.583970 -4.433236 1.882664 -43.745975 -12.573053 -63.574725 1.438786 -47.724796 -0.422135 -110.639694 4.127650 24.531405 3.264815 4.500896 -4.940061 1.257733 4.301113 1.884349 -0.000001 -0.000001 -0.000003 7.836290 5.674621 -33.868750 -14.817091 -6.958603 -79.799914 -0.000001 -0.000001 0.000002 -0.113742 -1.681365 -63.282666 -6.051158 -6.700256 -59.890534 -0.000002 -0.000001 -0.000004 -5.196481 4.842080 -74.079316 0.988999 -3.513839 -57.779377 0.000000 0.000003 0.000001 -16.236007 1.738511 -86.852679 2.654263 -7.507843 -55.322364 -0.000000 -0.000005 -0.000000 0.000001 0.000000 0.000002 0.000001 0.000000 0.000002 0.000001 0.000001 0.000002 0.000002 0.000002 -0.000003 0.000002 0.000001 -0.000003 0.000002 0.000002 -0.000003 0.000002 0.000001 -0.000003 -31.640564 22.307377 -1.216795 -13.817202 47.814002 59.039459 -1.610492 108.639398 -6.499998 -49.566768 -24.718830 -36.891050 15.063152 -4.756029 17.502503 11.597483 3.862756 -20.465050 -0.000001 -0.000003 0.000001 1.937082 -0.982000 4.874411 -1.778230 -0.107078 22.478655 -0.000001 0.000000 0.000001 3.842951 5.838912 48.794024 -9.272002 -0.957937 111.044792 0.000000 -0.000000 0.000002 -8.509737 -5.701030 54.621262 -4.670535 8.858714 96.958285 -0.000002 0.000001 0.000002 -12.390682 0.077242 69.456166 -3.414653 14.115505 79.795003 -0.000003 0.000002 -0.000001 0.000003 0.000003 -0.000003 0.000002 -0.000001 -0.000002 0.000003 0.000002 -0.000002 0.000002 -0.000007 -0.000003 0.000002 -0.000006 -0.000003 0.000002 -0.000007 -0.000003 0.000003 -0.000006 -0.000003 0.000000 -0.000001 0.000001 0.000000 -0.000001 0.000001 0.000000 -0.000001 0.000001 0.000000 -0.000001 0.000001 0.000000 -0.000001 0.000001 0.000000 -0.000001 0.000001 0.000000 -0.000001 0.000001 0.000001 -0.000001 -0.000000 -0.000000 0.000001 0.000000 
-2.145071 92.834770 2.505163 -19.592787 -38.709691 -10.770512 -0.000000 -0.000004 -0.000001 -18.394413 42.337826 31.204279 28.381446 -1.125060 -0.976777 -2.647217 2.170027 -6.560388 0.000000 -0.000000 -0.000000 -0.000000 0.000000 0.000000 9.318344 5.297250 -7.295919 32.429520 0.248418 1.170102 -24.764338 -18.097013 5.185757 -0.000000 0.000002 0.000000 -0.000000 -0.000002 0.000000 6.551960 -0.138038 -0.444873 13.103656 -0.309596 -0.640952 13.103653 -0.309572 -0.640956 0.068598 1.639005 0.148023 0.068514 1.639027 0.148095 0.000000 -0.000002 0.000001 0.068523 1.639111 0.148055 0.068552 1.638762 0.148124 0.000000 0.000001 -0.000000 0.000000 -0.000002 0.000001 -37.593498 -4.066558 2.202816 -42.844014 -13.363062 -63.595215 1.348408 -48.135058 -0.549790 -111.526717 3.592551 24.729726 2.938104 4.822065 -4.744331 1.262575 4.299639 1.879327 -0.000001 0.000006 -0.000000 8.119645 5.784126 -34.328869 -14.713517 -7.150032 -78.957608 -0.000001 -0.000001 -0.000001 0.120519 -1.798458 -63.586233 -5.923078 -6.813696 -59.494575 -0.000004 0.000001 -0.000003 -5.102038 5.057275 -74.674383 1.220325 -3.502515 -57.276491 -0.000001 -0.000001 -0.000001 -16.215858 2.049919 -87.555041 2.698868 -7.437106 -54.860151 -0.000003 -0.000005 0.000002 0.000000 0.000002 -0.000001 0.000000 0.000002 -0.000001 0.000000 0.000002 -0.000001 0.000001 -0.000001 -0.000001 0.000000 -0.000001 -0.000001 0.000001 -0.000001 -0.000001 0.000001 -0.000001 -0.000001 -31.610139 22.060323 -1.598443 -14.046161 47.626349 60.132644 -1.818882 108.981091 -6.207541 -49.626645 -25.049159 -36.929385 14.723719 -4.997511 17.993498 11.644600 3.710114 -20.518544 -0.000003 -0.000006 0.000000 2.017146 -0.987628 4.967071 -1.780435 -0.118859 22.640260 -0.000002 0.000000 0.000001 4.054906 5.897719 48.729336 -9.146329 -0.995009 111.329993 -0.000000 0.000000 0.000000 -8.343117 -5.743933 54.350288 -4.626869 8.853661 97.112811 -0.000002 -0.000001 -0.000002 -12.218428 0.074726 69.027094 -3.344716 14.137940 79.819503 0.000003 0.000003 -0.000002 0.000001 0.000000 0.000000 0.000000 -0.000000 0.000000 0.000001 -0.000000 0.000000 -0.000001 -0.000003 -0.000003 -0.000001 -0.000003 -0.000005 -0.000001 -0.000003 -0.000003 -0.000001 -0.000003 -0.000003 0.000001 -0.000000 0.000000 0.000001 -0.000000 0.000000 0.000001 -0.000000 0.000000 0.000001 -0.000000 0.000000 0.000001 -0.000000 0.000000 0.000001 -0.000000 0.000000 0.000001 -0.000000 0.000000 -0.000000 0.000001 -0.000000 -0.000000 -0.000004 -0.000001 
-2.264586 92.884010 2.826193 -19.395058 -38.777822 -10.693336 0.000000 -0.000001 -0.000001 -17.848372 42.120124 30.781149 28.224693 -1.063339 -0.970850 -2.855553 2.514320 -6.790732 -0.000000 -0.000000 0.000000 -0.000000 0.000000 -0.000000 9.801286 5.439867 -7.319637 31.680470 0.253421 1.144191 -24.633226 -18.292814 5.232526 -0.000000 0.000002 0.000000 0.000001 -0.000001 0.000000 6.496728 -0.185360 -0.464532 12.993086 -0.408166 -0.671614 12.993091 -0.408164 -0.671615 0.110350 1.703721 0.164238 0.110367 1.703733 0.164235 0.000001 -0.000003 0.000001 0.110435 1.703711 0.164239 0.110295 1.703755 0.164234 0.000000 0.000002 -0.000001 0.000001 -0.000003 0.000000 -37.603176 -3.698220 2.513274 -42.097970 -13.760360 -63.987405 1.256972 -48.254723 -0.671019 -111.988171 3.214212 24.804382 2.608505 5.135877 -4.545423 1.267411 4.298195 1.874319 0.000000 -0.000001 -0.000001 8.404869 5.888878 -34.790706 -14.607036 -7.341572 -78.114954 0.000002 -0.000001 0.000000 0.353552 -1.918083 -63.889938 -5.793513 -6.925809 -59.098280 0.000002 -0.000001 -0.000002 -5.003158 5.269703 -75.269900 1.451756 -3.487307 -56.774243 -0.000002 -0.000004 -0.000001 -16.188329 2.358993 -88.257744 2.742597 -7.365818 -54.398092 0.000002 -0.000002 0.000001 -0.000001 0.000002 -0.000001 -0.000001 0.000002 -0.000001 -0.000001 0.000003 -0.000001 -0.000002 0.000000 -0.000002 -0.000002 0.000000 -0.000001 -0.000002 0.000000 -0.000002 -0.000002 0.000000 -0.000001 -31.581391 21.801045 -1.993043 -14.076767 47.406922 61.068776 -1.961583 109.214547 -5.968157 -49.765629 -25.362588 -36.822711 14.389189 -5.243084 18.483972 11.691729 3.557428 -20.571997 -0.000001 0.000001 0.000001 2.097241 -0.992995 5.059743 -1.782571 -0.130593 22.801885 -0.000001 0.000000 -0.000000 4.266954 5.956085 48.664773 -9.020567 -1.030851 111.615379 0.000001 -0.000000 0.000001 -8.176992 -5.788365 54.079447 -4.583220 8.848919 97.267378 -0.000001 -0.000001 0.000000 -12.046207 0.070070 68.598083 -3.274799 14.160462 79.843969 0.000006 -0.000000 0.000003 -0.000000 0.000002 0.000001 -0.000001 0.000001 0.000002 -0.000000 0.000002 0.000002 -0.000001 -0.000001 0.000001 -0.000001 0.000000 -0.000001 -0.000001 -0.000001 0.000001 -0.000001 -0.000000 0.000000 -0.000000 0.000000 -0.000000 -0.000000 0.000000 -0.000000 -0.000000 0.000000 -0.000000 -0.000000 0.000000 -0.000000 -0.000000 0.000000 -0.000000 -0.000000 0.000000 -0.000000 -0.000000 0.000000 -0.000000 0.000000 -0.000004 -0.000001 0.000000 -0.000001 -0.000001 
